<?xml version="1.0" encoding="utf-8"?>
<svg id="master-artboard" viewBox="0 0 602.53173828125 980" version="1.1" xmlns="http://www.w3.org/2000/svg" x="0px" y="0px" style="enable-background:new 0 0 1400 980;" width="602.53173828125px" height="980px"><rect id="ee-background" x="0" y="0" width="602.53173828125" height="980" style="fill: white; fill-opacity: 0; pointer-events: none;"/><g transform="matrix(1.9859765768051145, 0, 0, 1.9859765768051145, -189.49366926570133, -1.518987277592828)"><path d="M397.564,62.201c0-1.62-1.084-3.03-2.656-3.434L254.697,22.856V8.294c0-4.584-3.707-8.294-8.293-8.294&#10;&#9;c-4.585,0-8.292,3.718-8.292,8.294l0.015,125.786h-5.799c-1.961,0-3.548,1.588-3.548,3.539v38.398H197.68V137.62&#10;&#9;c0-1.952-1.588-3.539-3.549-3.539h-28.152c-1.959,0-3.547,1.588-3.547,3.539v38.398h-13.719h-17.381V137.62&#10;&#9;c0-1.952-1.588-3.539-3.547-3.539H99.632c-1.959,0-3.547,1.588-3.547,3.539v38.398v16.117v16.83V237.7&#10;&#9;c0,8.86,7.175,16.036,16.036,16.036h23.407L96.149,474.606c-0.842,4.673,0.438,9.476,3.482,13.112&#10;&#9;c3.047,3.636,7.55,5.742,12.295,5.742h268.955c4.745,0,9.248-2.105,12.294-5.742c3.044-3.637,4.324-8.44,3.481-13.112&#10;&#9;L357.28,253.736h23.405c8.862,0,16.038-7.176,16.038-16.036v-28.735v-16.83v-16.117V137.62c0-1.952-1.588-3.539-3.548-3.539h-28.152&#10;&#9;c-1.961,0-3.547,1.588-3.547,3.539v38.398h-17.38h-13.722V137.62c0-1.952-1.586-3.539-3.547-3.539h-28.152&#10;&#9;c-1.961,0-3.548,1.588-3.548,3.539v38.398h-31.1V137.62c0-1.952-1.588-3.539-3.547-3.539h-5.768l-0.017-32.534l140.211-35.911&#10;&#9;C396.48,65.231,397.564,63.821,397.564,62.201z M284.6,333.917v69.434h-76.375v-69.434c0-21.09,17.09-38.186,38.195-38.186&#10;&#9;C267.51,295.73,284.6,312.827,284.6,333.917z" style="fill: rgb(72, 172, 33);"/><g>
</g><g>
</g><g>
</g><g>
</g><g>
</g><g>
</g><g>
</g><g>
</g><g>
</g><g>
</g><g>
</g><g>
</g><g>
</g><g>
</g><g>
</g></g></svg>