<?xml version="1.0" encoding="utf-8"?>
<svg id="master-artboard" viewBox="0 0 734.0902099609375 701.1351928710938" version="1.1" xmlns="http://www.w3.org/2000/svg" x="0px" y="0px" style="enable-background:new 0 0 336 235.2;" width="734.0902099609375px" height="701.1351928710938px" xmlns:xlink="http://www.w3.org/1999/xlink"><defs><symbol id="g" overflow="visible">
   <path d="m39.078-2.3281c-2.0117 1.043-4.1094 1.8281-6.2969 2.3594s-4.4648 0.79688-6.8281 0.79688c-7.0859 0-12.699-1.9766-16.844-5.9375-4.1367-3.957-6.2031-9.3281-6.2031-16.109 0-6.7891 2.0664-12.164 6.2031-16.125 4.1445-3.9688 9.7578-5.9531 16.844-5.9531 2.3633 0 4.6406 0.26562 6.8281 0.79688s4.2852 1.3242 6.2969 2.375v8.7969c-2.0312-1.3828-4.0391-2.3984-6.0156-3.0469-1.9688-0.64453-4.0469-0.96875-6.2344-0.96875-3.9062 0-6.9844 1.2578-9.2344 3.7656-2.2422 2.5-3.3594 5.9531-3.3594 10.359 0 4.3867 1.1172 7.8359 3.3594 10.344 2.25 2.5 5.3281 3.75 9.2344 3.75 2.1875 0 4.2656-0.32031 6.2344-0.96875 1.9766-0.64453 3.9844-1.6602 6.0156-3.0469z"/>
  </symbol><symbol id="f" overflow="visible">
   <path d="m16.031-40.953v9.0625h10.516v7.2812h-10.516v13.531c0 1.4805 0.28906 2.4805 0.875 3 0.59375 0.52344 1.7656 0.78125 3.5156 0.78125h5.2344v7.2969h-8.7344c-4.0312 0-6.8867-0.83594-8.5625-2.5156-1.6797-1.6875-2.5156-4.5391-2.5156-8.5625v-13.531h-5.0781v-7.2812h5.0781v-9.0625z"/>
  </symbol><symbol id="e" overflow="visible">
   <path d="m26.594-27.234v-17.078h10.266v44.312h-10.266v-4.6094c-1.3984 1.875-2.9453 3.25-4.6406 4.125-1.6875 0.875-3.6406 1.3125-5.8594 1.3125-3.9297 0-7.1562-1.5625-9.6875-4.6875-2.5234-3.125-3.7812-7.1445-3.7812-12.062 0-4.9141 1.2578-8.9375 3.7812-12.062 2.5312-3.125 5.7578-4.6875 9.6875-4.6875 2.1953 0 4.1445 0.44531 5.8438 1.3281 1.707 0.88672 3.2578 2.2578 4.6562 4.1094zm-6.7188 20.656c2.1875 0 3.8516-0.79688 5-2.3906 1.1445-1.5938 1.7188-3.9102 1.7188-6.9531 0-3.0391-0.57422-5.3594-1.7188-6.9531-1.1484-1.5938-2.8125-2.3906-5-2.3906-2.168 0-3.8242 0.79688-4.9688 2.3906-1.1484 1.5938-1.7188 3.9141-1.7188 6.9531 0 3.043 0.57031 5.3594 1.7188 6.9531 1.1445 1.5938 2.8008 2.3906 4.9688 2.3906z"/>
  </symbol><symbol id="d" overflow="visible">
   <path d="m21.875-6.5781c2.1758 0 3.8359-0.79688 4.9844-2.3906 1.1562-1.5938 1.7344-3.9102 1.7344-6.9531 0-3.0391-0.57812-5.3594-1.7344-6.9531-1.1484-1.5938-2.8086-2.3906-4.9844-2.3906-2.1875 0-3.8672 0.80469-5.0312 2.4062-1.168 1.6055-1.75 3.918-1.75 6.9375 0 3.0234 0.58203 5.3359 1.75 6.9375 1.1641 1.6055 2.8438 2.4062 5.0312 2.4062zm-6.7812-20.656c1.4062-1.8516 2.9609-3.2227 4.6719-4.1094 1.707-0.88281 3.6719-1.3281 5.8906-1.3281 3.9375 0 7.1641 1.5625 9.6875 4.6875 2.5195 3.125 3.7812 7.1484 3.7812 12.062 0 4.918-1.2617 8.9375-3.7812 12.062-2.5234 3.125-5.75 4.6875-9.6875 4.6875-2.2188 0-4.1836-0.44531-5.8906-1.3281-1.7109-0.88281-3.2656-2.2539-4.6719-4.1094v4.6094h-10.188v-44.312h10.188z"/>
  </symbol><symbol id="c" overflow="visible">
   <path d="m5.3594-42.516h18.188c5.4141 0 9.5703 1.2031 12.469 3.6094 2.8945 2.3984 4.3438 5.8125 4.3438 10.25 0 4.4688-1.4492 7.9062-4.3438 10.312-2.8984 2.3984-7.0547 3.5938-12.469 3.5938h-7.2344v14.75h-10.953zm10.953 7.9375v11.875h6.0781c2.125 0 3.7656-0.51562 4.9219-1.5469s1.7344-2.5 1.7344-4.4062c0-1.8945-0.57812-3.3516-1.7344-4.375-1.1562-1.0312-2.7969-1.5469-4.9219-1.5469z"/>
  </symbol><symbol id="b" overflow="visible">
   <path d="m0.28125-42.516h39.188v8.2812h-14.094v34.234h-10.969v-34.234h-14.125z"/>
  </symbol><symbol id="a" overflow="visible">
   <path d="m36.969-19.422v19.422h-10.25v-14.812c0-2.7891-0.0625-4.707-0.1875-5.75-0.125-1.0391-0.33984-1.8125-0.64062-2.3125-0.39844-0.65625-0.9375-1.1719-1.625-1.5469s-1.4648-0.5625-2.3281-0.5625c-2.1367 0-3.8125 0.82422-5.0312 2.4688-1.2109 1.6484-1.8125 3.9219-1.8125 6.8281v15.688h-10.188v-44.312h10.188v17.078c1.5391-1.8516 3.1719-3.2227 4.8906-4.1094 1.7266-0.88281 3.6406-1.3281 5.7344-1.3281 3.6875 0 6.4844 1.1328 8.3906 3.3906 1.9062 2.2617 2.8594 5.5469 2.8594 9.8594z"/>
  </symbol></defs><rect id="ee-background" x="0" y="0" width="734.0902099609375" height="701.1351928710938" style="fill: white; fill-opacity: 0; pointer-events: none;"/>














<g transform="matrix(1.399999976158142, 0, 0, 1.399999976158142, -114.54092816967284, -0.000008453650707451743)"><g transform="matrix(0.8686043867376498, 0, 0, 0.8686043867376498, 45.98846464182256, 2.2414777686473695)">
  <path d="m70 509h560v33.941h-560z" fill-rule="evenodd" style="fill-opacity: 0.71; fill: rgb(207, 207, 207);"/>
  <path d="m120.91 458.09h458.18v33.941h-458.18v-33.941z" fill-rule="evenodd" style="fill-opacity: 0.71; fill: rgb(207, 207, 207);"/>
  <path d="m349.98 17.059 246.08 152.55h-492.14z" fill-rule="evenodd" style="fill-opacity: 0.71; fill: rgb(207, 207, 207);"/>
  <path d="m273.64 186.57v43.266c14.188-12.906 31.59-22.277 50.91-26.715v-16.551zm101.82 0v16.551c19.32 4.4453 36.719 13.844 50.91 26.758v-43.309zm50.91 211.24c-14.188 12.918-31.59 22.312-50.91 26.758v16.551h50.91zm-152.73 0v43.285h50.91v-16.551c-19.32-4.4375-36.723-13.824-50.91-26.734z" fill-rule="evenodd" style="fill-opacity: 0.71; fill: rgb(207, 207, 207);"/>
  <path d="m477.26 186.57h50.91v254.55h-50.91z" fill-rule="evenodd" style="fill-opacity: 0.71; fill: rgb(207, 207, 207);"/>
  <path d="m171.81 186.57h50.91v254.55h-50.91z" fill-rule="evenodd" style="fill-opacity: 0.71; fill: rgb(207, 207, 207);"/>
  <path d="m349.98 216.41c-53.723 0-97.422 43.723-97.422 97.445 0 53.723 43.699 97.422 97.422 97.422 53.723 0 97.445-43.699 97.445-97.422 0-53.719-43.723-97.445-97.445-97.445zm-5.9453 40.305h15.113v17.035c10.594 3.1094 18.672 12.445 18.672 23.863l-15.113 0.11719c0-5.3789-4.6797-10.008-11.137-10.008-6.457 0-11.098 4.6719-11.09 10.055 0.003907 5.3789 4.6562 10.027 11.113 10.031v0.11719c9.9844-0.003906 19.293 5.3789 23.707 14.34 4.6289 9.3945 2.6367 20.785-4.793 28.195-3.2188 3.207-7.1523 5.3945-11.355 6.6055v17.012h-15.113v-17.059c-0.66797-0.19922-1.332-0.35156-1.9883-0.59375-9.8555-3.6953-16.66-12.957-16.66-23.422h15.09c0 3.9453 2.5195 7.6484 6.8711 9.2812 4.3516 1.6328 9.4062 0.52344 12.484-2.5391 3.0742-3.0664 3.7344-7.1289 1.9219-10.805s-6.0625-6.1953-10.805-5.9453v-0.11719c-13.863-0.33984-25.562-11.234-25.562-25.055-0.007813-11.441 8.0273-20.848 18.648-23.973v-17.102z" style="fill-opacity: 0.71; fill: rgb(207, 207, 207);"/>
  <use x="70" y="735" style="fill-opacity: 0.71; fill: rgb(207, 207, 207);" xlink:href="#g"/>
  <use x="220.503906" y="735" style="fill-opacity: 0.71; fill: rgb(207, 207, 207);" xlink:href="#f"/>
  <use x="287.953125" y="735" style="fill-opacity: 0.71; fill: rgb(207, 207, 207);" xlink:href="#e"/>
  <use x="350.015625" y="735" style="fill-opacity: 0.71; fill: rgb(207, 207, 207);" xlink:href="#d"/>
  <use x="450.105469" y="735" style="fill-opacity: 0.71; fill: rgb(207, 207, 207);" xlink:href="#c"/>
  <use x="513.167969" y="735" style="fill-opacity: 0.71; fill: rgb(207, 207, 207);" xlink:href="#b"/>
  <use x="552.957031" y="735" style="fill-opacity: 0.71; fill: rgb(207, 207, 207);" xlink:href="#a"/>
 </g></g></svg>